<svg xmlns="http://www.w3.org/2000/svg" xmlns:se="http://svg-edit.googlecode.com" xmlns:xlink="http://www.w3.org/1999/xlink" xmlns:dc="http://purl.org/dc/elements/1.1/" xmlns:cc="http://creativecommons.org/ns#" xmlns:rdf="http://www.w3.org/1999/02/22-rdf-syntax-ns#" xmlns:inkscape="http://www.inkscape.org/namespaces/inkscape" width="213" height="259" style="">                                    <title>my vector image</title>                                    <!-- Created with Vector Paint - http://www.vectorpaint.yaks.com/ https://chrome.google.com/webstore/detail/hnbpdiengicdefcjecjbnjnoifekhgdo -->                                    <rect id="backgroundrect" width="100%" height="100%" x="0" y="0" fill="#FFFFFF" stroke="none" class="" style=""/>                                <g class="currentLayer" style=""><title>Layer 1</title><rect fill="#04b8b8" stroke="#ffffff" stroke-width="2" stroke-linejoin="round" stroke-dashoffset="" fill-rule="nonzero" id="svg_9" x="1" y="1" width="211" height="257" style="color: rgb(0, 0, 0);" class="" stroke-opacity="1" fill-opacity="1" rx="22" ry="22"/><path fill="#242424" stroke="#242424" stroke-width="2" stroke-linejoin="round" stroke-dashoffset="" fill-rule="nonzero" marker-start="" marker-mid="" marker-end="" id="svg_6" d="M142.92970105525978,226.5177174922439 C132.02844706678957,225.22019182680123 127.4175645375496,212.44112295010143 129.6459308753124,202.87532465287165 C133.47959775983952,187.7645634866965 148.47751483150665,177.32205287989711 163.5246748474937,175.6243246225094 C169.23379814239195,175.15304372804388 175.52857554926925,175.23290152919583 180.23058344283896,178.830889090484 C184.08945493965905,177.29828667992933 181.37447112201232,171.2539031655752 182.0787877711292,167.63109975208073 C182.0787877711292,123.04677770175002 182.0787877711292,78.4624297340703 182.0787877711292,33.87811416306968 C191.78299113856383,32.46443346304699 185.5167422427154,46.20518464560416 187.22835571453732,51.83308299972023 C187.1640547961914,101.04613166727458 187.63094270167932,150.26411758793438 186.73588091600948,199.47248817578304 C182.00375707439076,217.86371062308143 161.21220026497087,229.51523918225263 142.92970105525978,226.5177174922439 zM144.77320138649713,218.4785023035605 C159.66590054069292,213.7428213071454 173.52547624375916,203.85944489507318 180.61084264233426,189.6518576417094 C181.22988476642388,180.8689444071228 170.2404859076255,182.69594835201656 165.27309094085638,185.6614426902117 C156.52443394924273,190.0450560727529 148.29031389108206,195.80333808061852 141.46757436909633,202.83895614675924 C136.9369772770973,207.00231750217148 131.17018142333336,219.79937949154856 141.97747209883977,219.07333763291768 L143.47036266653384,218.8626296659142 L144.77318842782904,218.47849582422612 L144.77318842782904,218.47849582422612 L144.77320138649713,218.4785023035605 z" style="color: rgb(0, 0, 0);" class="" stroke-opacity="1" fill-opacity="1"/><path fill="#b6b6b6" fill-opacity="1" stroke="#ffffff" stroke-opacity="1" stroke-width="20" stroke-dasharray="none" stroke-linejoin="round" stroke-linecap="butt" stroke-dashoffset="" fill-rule="nonzero" opacity="1" marker-start="" marker-mid="" marker-end="" d="M30.088878453797122,56.80245989471143 L136.2617176474567,56.80245989471143 " id="svg_2" class=""/><path fill="#b6b6b6" fill-opacity="1" stroke="#ffffff" stroke-opacity="1" stroke-width="20" stroke-dasharray="none" stroke-linejoin="round" stroke-linecap="butt" stroke-dashoffset="" fill-rule="nonzero" opacity="1" marker-start="" marker-mid="" marker-end="" d="M30.08887857300641,98.7777678361482 L136.26171776666598,98.7777678361482 " class="" id="svg_5"/><path fill="#b6b6b6" fill-opacity="1" stroke="#ffffff" stroke-opacity="1" stroke-width="20" stroke-dasharray="none" stroke-linejoin="round" stroke-linecap="butt" stroke-dashoffset="" fill-rule="nonzero" opacity="1" marker-start="" marker-mid="" marker-end="" d="M30.08887928826215,140.13579338699049 L136.26171848192172,140.13579338699049 " class="" id="svg_7"/><rect fill="#242424" stroke="#ffffff" stroke-width="0" stroke-linejoin="round" stroke-dashoffset="" fill-rule="nonzero" id="svg_17" x="181.19726885855204" y="35.91859652930813" width="7.12499978406359" height="168.2781778630399" style="color: rgb(0, 0, 0);" class="" fill-opacity="1" stroke-opacity="1" rx="10" ry="10"/></g></svg>